<svg xmlns="http://www.w3.org/2000/svg" viewBox="0 0 640 360" width="640" height="360"><defs><linearGradient id="bg" x1="0" y1="0" x2="1" y2="1"><stop offset="0" stop-color="#99f6e4"/><stop offset="1" stop-color="#0f766e"/></linearGradient></defs><rect width="640" height="360" fill="url(#bg)"/>
<rect y="270" width="640" height="90" fill="#134e4a" opacity=".55"/>
<g stroke="#99f6e4" stroke-width="5" opacity=".8"><line x1="0" y1="305" x2="640" y2="305"/><line x1="0" y1="338" x2="640" y2="338"/></g>
<rect x="190" y="52" width="260" height="228" rx="40" fill="#fff"/>
<rect x="190" y="52" width="260" height="70" rx="40" fill="#0ea5e9"/>
<rect x="190" y="90" width="260" height="32" fill="#0ea5e9"/>
<rect x="214" y="104" width="212" height="86" rx="14" fill="#0f172a"/>
<rect x="224" y="112" width="92" height="70" rx="8" fill="#38bdf8" opacity=".55"/>
<rect x="324" y="112" width="92" height="70" rx="8" fill="#38bdf8" opacity=".35"/>
<circle cx="238" cy="224" r="13" fill="#fde047"/><circle cx="402" cy="224" r="13" fill="#fde047"/>
<rect x="290" y="214" width="60" height="14" rx="7" fill="#94a3b8"/>
<rect x="200" y="258" width="240" height="22" rx="6" fill="#0f766e"/></svg>
